# File created by Blade
# Date/Time:  Wed Jan 21 15:23:43 2015
# Frame Rate: 120.000 fps
#------------------------------------------------------
:FULLY-SPECIFIED
:DEGREES
554
root 22.216897 33.814347 -19.049961 -169.648864 3.470396 -174.676530
Spine -0.906375 3.686008 6.741477
Head -5.323012 0.253064 2.695301
LeftShoulder -8.005824 -23.376786 -2.249933
LeftArm -20.885581 35.549155 -89.443304
LeftForeArm 15.245516 0.000000 25.067506
LeftHand -0.786439 -0.000000 -6.542639
LeftHandThumb1 -26.253704 0.000000 33.147579
RightShoulder -3.071747 -11.347598 5.553619
RightArm 18.378136 -28.209208 61.626984
RightForeArm -28.259464 -0.000000 26.317758
RightHand 0.734506 -0.000000 11.129082
RightHandThumb1 -24.326973 -0.000000 -32.862282
LeftUpLeg -11.220047 26.276224 19.715318
LeftLeg 7.986232 -0.000000 -0.000000
LeftFoot -19.702272 16.218107 -16.401158
LeftToeBase 32.439312 -0.000000 -0.000000
RightUpLeg -18.479296 -21.814319 -4.990872
RightLeg 8.807620 -0.000000 -0.000000
RightFoot -12.268435 -29.775159 16.114563
RightToeBase 21.704891 -0.000000 -0.000000
555
root 22.066422 33.819305 -19.047417 -169.629901 3.327317 -175.211189
Spine -0.925656 3.602744 5.915923
Head -5.530657 0.039822 3.052818
LeftShoulder -7.903241 -23.399851 -2.003228
LeftArm -20.908944 35.679711 -89.390907
LeftForeArm 15.165899 -0.000000 25.371774
LeftHand -0.745444 0.000000 -6.478199
LeftHandThumb1 -26.253704 0.000000 33.147579
RightShoulder -3.147255 -11.346689 5.638321
RightArm 18.324195 -28.385989 61.875081
RightForeArm -27.893501 -0.000000 26.261602
RightHand 0.824607 -0.000000 11.259730
RightHandThumb1 -24.326973 -0.000000 -32.862282
LeftUpLeg -11.917100 26.034876 18.864899
LeftLeg 8.976871 -0.000000 -0.000000
LeftFoot -20.086431 16.054379 -16.366942
LeftToeBase 31.980641 -0.000000 -0.000000
RightUpLeg -18.011525 -22.207128 -5.690760
RightLeg 7.785940 -0.000000 -0.000000
RightFoot -11.631535 -29.862201 15.885551
RightToeBase 22.035279 -0.000000 -0.000000
556
root 21.912832 33.821547 -19.039192 -169.580747 3.202186 -175.807454
Spine -0.972120 3.513950 5.011775
Head -5.729965 -0.171148 3.411999
LeftShoulder -7.751048 -23.448436 -1.804767
LeftArm -21.003628 35.721335 -89.256149
LeftForeArm 15.393296 -0.000000 25.831673
LeftHand -0.815615 0.000000 -6.646354
LeftHandThumb1 -26.253704 0.000000 33.147579
RightShoulder -3.152341 -11.331443 5.755682
RightArm 18.140885 -28.368046 62.200298
RightForeArm -27.923990 0.000000 26.308478
RightHand 0.904392 0.000000 11.425933
RightHandThumb1 -24.326973 -0.000000 -32.862282
LeftUpLeg -12.722724 25.926201 17.907789
LeftLeg 10.074250 -0.000000 -0.000000
LeftFoot -20.524209 15.838422 -16.415281
LeftToeBase 31.862654 -0.000000 -0.000000
RightUpLeg -17.641655 -22.680836 -6.432128
RightLeg 6.871263 -0.000000 -0.000000
RightFoot -11.058786 -29.842455 15.715776
RightToeBase 22.131972 -0.000000 -0.000000
557
root 21.762247 33.818060 -19.034434 -169.567593 2.989104 -176.356467
Spine -0.960924 3.376986 4.190515
Head -5.953618 -0.326325 3.766217
LeftShoulder -7.590762 -23.515340 -1.623897
LeftArm -21.125744 35.753166 -89.145713
LeftForeArm 15.572809 0.000000 26.358960
LeftHand -0.858064 -0.000000 -6.612971
LeftHandThumb1 -26.253704 0.000000 33.147579
RightShoulder -3.277641 -11.436082 5.891067
RightArm 18.264154 -28.888784 62.053339
RightForeArm -27.130919 0.000000 26.520274
RightHand 0.785197 0.000000 11.575694
RightHandThumb1 -24.326973 -0.000000 -32.862282
LeftUpLeg -13.558885 25.744675 17.038220
LeftLeg 11.272704 -0.000000 -0.000000
LeftFoot -20.982477 15.577546 -16.446815
LeftToeBase 31.759733 -0.000000 -0.000000
RightUpLeg -17.204767 -23.261266 -7.139875
RightLeg 5.990406 -0.000000 -0.000000
RightFoot -10.529077 -29.732894 15.653985
RightToeBase 22.023894 -0.000000 -0.000000
